
        <svg xmlns="http://www.w3.org/2000/svg" xmlns:xlink="http://www.w3.org/1999/xlink" version="1.1" width="3169.491525423729" 
        height="966.1016949152543" viewBox="0 0 3169.491525423729 966.1016949152543">
			<rect fill="#111111" width="3169.491525423729" height="966.1016949152543"/>
			<g transform="scale(8.474576271186441) translate(10, 10)">
				<defs id="SvgjsDefs1419"><linearGradient id="SvgjsLinearGradient1428"><stop id="SvgjsStop1429" stop-color="#8f5e25" offset="0"></stop><stop id="SvgjsStop1430" stop-color="#fbf4a1" offset="0.5"></stop><stop id="SvgjsStop1431" stop-color="#8f5e25" offset="1"></stop></linearGradient><linearGradient id="SvgjsLinearGradient1432"><stop id="SvgjsStop1433" stop-color="#8f5e25" offset="0"></stop><stop id="SvgjsStop1434" stop-color="#fbf4a1" offset="0.5"></stop><stop id="SvgjsStop1435" stop-color="#8f5e25" offset="1"></stop></linearGradient><linearGradient id="SvgjsLinearGradient1436"><stop id="SvgjsStop1437" stop-color="#8f5e25" offset="0"></stop><stop id="SvgjsStop1438" stop-color="#fbf4a1" offset="0.5"></stop><stop id="SvgjsStop1439" stop-color="#8f5e25" offset="1"></stop></linearGradient><linearGradient id="SvgjsLinearGradient1440"><stop id="SvgjsStop1441" stop-color="#8f5e25" offset="0"></stop><stop id="SvgjsStop1442" stop-color="#fbf4a1" offset="0.5"></stop><stop id="SvgjsStop1443" stop-color="#8f5e25" offset="1"></stop></linearGradient></defs><g id="SvgjsG1420" featureKey="symbolFeature-0" transform="matrix(1.1032325483045256,0,0,1.1032325483045256,-5.716913365587307,-8.611235797079033)" fill="url(#SvgjsLinearGradient1428)"><path xmlns="http://www.w3.org/2000/svg" d="M25.2,67.5l0.4,0.5l0.6-0.1c0.4-0.1,10.1-2.1,17.5-5.1c7.3-3,15-3.6,17.2-3.7c0.5,0,1-0.2,1.4-0.4c1.3-0.8,6.2-3.2,14.7-2.8  c4.7,0.2,14.8-0.1,16.2-0.2c0.4,0,0.7-0.2,0.9-0.6c0.2-0.3,0.2-0.7,0-1.1l-1.3-2.2c-0.1-0.1-0.1-0.3-0.3-0.4L70.5,30l-0.4,0  c-0.1,0-9.8,0.1-16.9-0.4c-8.4-0.5-11.4,3.8-12.1,4.8c-1.6-0.9-9.6-4.8-19-0.6C16.3,36.4,9.9,37.1,9.1,37c0,0-1.3-0.3-1.3,1.2  c0,0.5,0,3.5,0,5.5v0.3L8,44.2C9.4,46.3,24.6,66.7,25.2,67.5z M43,61c-6.2,2.5-14.3,4.4-16.5,4.9c-2.3-3.1-14.6-19.7-16.6-22.5  c0-0.7,0-1.5,0-2.3l16.6,22.6l0.4,0c0.1,0,0.7,0.1,1.8,0.1c3,0,9.4-0.5,15.7-4.1c5-2.9,9.6-2.9,13.4-2.2C54.2,57.8,48.5,58.8,43,61z   M77,54c-7.5-0.4-12.5,1.5-14.8,2.6c0,0,0,0,0-0.1c0.1-0.8,0.7-1.4,1.2-1.8c1.8-1.5,6.3-3.1,12.9-2.3c4.6,0.5,12.9,1,15.1,1.1  l0.2,0.4C88.4,54,80.8,54.2,77,54z M42.7,35.6c0,0,2.3-4.5,10.3-4c6.4,0.4,14.8,0.4,16.7,0.4l19.9,19.4c-3.4-0.2-9.4-0.6-13.1-1  c-6-0.7-11.5,0.4-14.4,2.7c-0.6,0.5-1.1,1.1-1.4,1.6c-9.7-9.3-16.6-17.1-18.2-18.9L42.7,35.6z M22.8,35.6c8.7-3.8,16.3,0,17.4,0.6  c1,1.2,8.7,9.9,18.6,19.4c-4.3-0.9-9.7-1.1-15.5,2.3c-6.8,4-14.1,3.9-15.9,3.8L10.6,38.8C13.4,38.6,18.4,37.6,22.8,35.6z"></path><path xmlns="http://www.w3.org/2000/svg" d="M94.1,56.6l-29.7,1.7c-0.6,0-1.1,0.4-1.3,1c-0.3,0.8-1,1.4-1.7,1.6C61,61,60.2,61,59.5,60.3c-0.5-0.5-1.2-0.7-1.9-0.5  L24.3,69.9L7,44.9c-0.3-0.4-0.9-0.6-1.4-0.2C5.2,45,5,45.6,5.4,46l18.2,26.1l34.6-10.5c1,1,2.4,1.5,3.7,1.2c1.3-0.3,2.5-1.3,3-2.6  l29.4-1.7c0.5,0,1-0.5,0.9-1C95.2,57,94.7,56.6,94.1,56.6z"></path></g><g id="SvgjsG1421" featureKey="textGroupContainer" transform="matrix(1,0,0,1,353,0)" fill="url(#SvgjsLinearGradient1432)"><rect xmlns="http://www.w3.org/2000/svg" y="0" height="1" width="1" opacity="0"></rect><rect xmlns="http://www.w3.org/2000/svg" y="0" x="-234" width="5" height="94"></rect></g><g id="SvgjsG1422" featureKey="nameFeature-0" transform="matrix(1.2001572694405056,0,0,1.2001572694405056,135.75183648556424,17.087096142446814)" fill="url(#SvgjsLinearGradient1436)"><path d="M6.34 6 l0 14 l-2.92 0 l0 -11.52 l-2.38 0 l0 -2.48 l5.3 0 z M14.879999999999999 13.32 l0 2.4 l-6.2 0 l0 -2.4 l6.2 0 z M21.560000000000002 5.76 c2.46 0 4.02 1.54 4.76 2.9 l-2.16 1.28 c-0.76 -1.06 -1.5 -1.6 -2.6 -1.6 c-0.98 0 -1.7 0.58 -1.7 1.38 s0.46 1.22 1.56 1.62 l0.96 0.34 c3.1 1.1 4.32 2.48 4.32 4.4 c0 2.82 -2.68 4.22 -5.06 4.22 c-2.52 0 -4.48 -1.5 -5.16 -3.46 l2.24 -1.18 c0.5 1.02 1.34 2 2.92 2 c1.14 0 2.02 -0.5 2.02 -1.54 c0 -1 -0.6 -1.44 -2.12 -2.02 l-0.86 -0.3 c-2.06 -0.74 -3.72 -1.76 -3.72 -4.2 c0 -2.24 2.1 -3.84 4.6 -3.84 z M35.56 5.800000000000001 c3.9 0 7.26 2.94 7.26 7.2 s-3.36 7.2 -7.26 7.2 s-7.26 -2.94 -7.26 -7.2 s3.36 -7.2 7.26 -7.2 z M35.56 17.46 c2.36 0 4.22 -1.86 4.22 -4.46 s-1.86 -4.46 -4.22 -4.46 s-4.22 1.86 -4.22 4.46 s1.86 4.46 4.22 4.46 z M54.08 6 l2.92 0 l0 14 l-2.22 0 l-6.94 -8.68 l0 8.68 l-2.92 0 l0 -14 l2.26 0 l6.9 8.7 l0 -8.7 z M62.32 17.32 l5.5 0 l0 2.68 l-8.42 0 l0 -14 l2.92 0 l0 11.32 z M72.74000000000001 6 l0 14 l-2.92 0 l0 -14 l2.92 0 z M96.14 6 l0 14 l-3 0 l0 -7.44 l-3.26 7.44 l-2.52 0 l-3.22 -7.4 l0 7.4 l-3 0 l0 -14 l2.88 0 l4.62 10.1 l4.62 -10.1 l2.88 0 z M109.72 20 l-1.06 -2.5 l-6.76 0 l-1.06 2.5 l-3.1 0 l6.22 -14 l2.64 0 l6.24 14 l-3.12 0 z M102.92 15.120000000000001 l4.72 0 l-2.36 -5.54 z M123.50000000000001 20 l-4.34 -6 l-1.72 1.96 l0 4.04 l-3 0 l0 -14 l3 0 l0 6.1 l5.18 -6.1 l3.6 0 l-5.26 5.96 l5.9 8.04 l-3.36 0 z M138.06 6 l0 2.68 l-3.48 0 l0 11.32 l-2.92 0 l0 -11.32 l-3.5 0 l0 -2.68 l9.9 0 z M151.24 20 l-1.06 -2.5 l-6.76 0 l-1.06 2.5 l-3.1 0 l6.22 -14 l2.64 0 l6.24 14 l-3.12 0 z M144.44000000000003 15.120000000000001 l4.72 0 l-2.36 -5.54 z M163.68 12.24 c1.48 0.4 2.88 1.72 2.88 3.66 c0 2.54 -1.6 4.1 -5.08 4.1 l-5.52 0 l0 -14 l5.22 0 c2.9 0 4.36 1.64 4.36 3.52 c0 1.48 -0.96 2.32 -1.86 2.72 z M160.9 8.56 l-2.02 0 l0 2.82 l2.02 0 c1.24 0 1.74 -0.58 1.74 -1.42 c0 -0.9 -0.58 -1.4 -1.74 -1.4 z M161.32000000000002 17.44 c1.6 0 2.32 -0.66 2.32 -1.9 c0 -1.06 -0.72 -1.8 -2.44 -1.8 l-2.32 0 l0 3.7 l2.44 0 z"></path></g><g id="SvgjsG1423" featureKey="sloganFeature-0" transform="matrix(1.3086299892740167,0,0,1.3086299892740167,134.1210139611968,44.692403851061414)" fill="url(#SvgjsLinearGradient1440)"><path d="M4.34 20 l-2.14 0 l0 -14.92 l2.14 0 l0 14.92 z M9.18 7.18 l-1.74 -2.1 l2.82 0 l9.58 11.4 l0 -11.4 l2.2 0 l0 14.92 l-2.16 0 l-8.56 -10.26 l0 10.26 l-2.14 0 l0 -12.82 z M37.54 7.279999999999999 l-5.26 0 l0 12.72 l-2.12 0 l0 -12.72 l-5.32 0 l0 -2.2 l12.7 0 l0 2.2 z M42.52 14.02 l0 3.8 l9.2 0 l0 2.18 l-11.38 0 l0 -14.92 l10.5 0 l0 2.2 l-8.32 0 l0 4.52 q0.62 -0.36 1.38 -0.48 q0.56 -0.1 1.44 -0.1 l3.26 0 l0 2.22 l-3.26 0 q-0.82 0 -1.44 0.1 q-0.76 0.14 -1.38 0.48 z M57.400000000000006 7.26 l0 4.96 q0.62 -0.36 1.38 -0.48 q0.56 -0.1 1.44 -0.1 l2.84 0 q1.18 0 1.84 -0.54 q0.7 -0.58 0.7 -1.74 q0 -1.1 -0.74 -1.64 q-0.64 -0.46 -1.8 -0.46 l-5.66 0 z M63.78 17.64 l-1.82 -3.82 l-1.74 0 q-0.82 0 -1.44 0.1 q-0.76 0.14 -1.38 0.48 l0 5.6 l-2.18 0 l0 -14.92 l7.84 0 q1.38 0 2.44 0.52 t1.64 1.48 q0.62 1.02 0.62 2.4 q0 1.68 -0.9 2.76 t-2.54 1.5 l1.16 2.38 q0.5 0.74 0.78 1.04 q0.34 0.38 0.65 0.51 t0.81 0.13 l0.22 0 l0.48 -0.02 l0 2.22 q-1.16 0 -1.72 -0.08 q-0.94 -0.16 -1.6 -0.62 q-0.78 -0.56 -1.32 -1.66 z M72.46000000000001 7.18 l-1.74 -2.1 l2.82 0 l9.58 11.4 l0 -11.4 l2.2 0 l0 14.92 l-2.16 0 l-8.56 -10.26 l0 10.26 l-2.14 0 l0 -12.82 z M94.38000000000001 6.66 l-0.82 -1.84 l2.4 0 l7.18 15.18 l-2.44 0 l-0.98 -2.18 l-4.54 0 q-1.28 0 -2.3 0.24 q-0.9 0.22 -1.5 0.58 q-0.54 0.32 -0.72 0.66 l-0.38 0.7 l-2.36 0 z M95.98000000000002 15.620000000000001 l2.76 0 l-3.26 -6.3 l-3.3 7.14 q0.44 -0.38 1.34 -0.6 q1.02 -0.24 2.46 -0.24 z M117.04 7.279999999999999 l-5.26 0 l0 12.72 l-2.12 0 l0 -12.72 l-5.32 0 l0 -2.2 l12.7 0 l0 2.2 z"></path></g>
			</g>
		</svg>
	